<?xml version="1.0" encoding="UTF-8"?>
<svg id="Capa_1" data-name="Capa 1" xmlns="http://www.w3.org/2000/svg" viewBox="0 0 72.44 80">
  <defs>
    <style>
      .cls-1 {
        fill: #00b5d3;
      }

      .cls-1, .cls-2 {
        stroke-width: 0px;
      }

      .cls-2 {
        fill: #0d91b2;
      }
    </style>
  </defs>
  <path class="cls-1" d="m13.78,47.28c-.25-7.94,3.17-15.8,7.44-19.95,6.86-6.65,14.17-7.37,21.74-6.11,0,0,.27-2.18,1.92-2.69,0,0-1.86,3.6,0,6.51,1.86,2.91,4.8,2,8.51,4.51,3.71,2.51,3.86,2.95,4.22,3.89.36.95.76,1.96,3.17,2.66,2.4.69,3.49,1.53,4.08,1.93.58.4,1.86,1.09,3.82-.4,1.96-1.49,3.2-2.77,3.53-3.09.33-.33.44-1.38-.55-2.47-.98-1.09-3.64-3.89-4.04-8.59-.4-4.69-.51-6.04-3.31-10.15-2.8-4.11-6.19-8.08-11.75-11.28,0,0,5.68,5.06,8.04,11.64,0,0-4.04.87-7.35-1.64,0,0,4.04.87,5.79.47,0,0-5.49-3.82-8.91-4.8-3.42-.98-4.15-.22-8.92-7.72,0,0-.54,5.08,4.15,10.56,0,0-2.33-1.42-4.22-4.84,0,0-10.48-.65-20.27,4C11.08,14.38,2.6,24.14.6,36.86c-2.62,16.71,3.95,25.76,7.6,28.53,0,0-5.61-7.64-5.61-18.05,0-9.39,4.74-15.79,4.74-15.79,0,0-3.64,7.99-2.98,16.81.78,10.42,5.17,17.25,10.84,22.27,5.68,5.02,14.71,10.47,27.36,9.17,0,0-7.31-.67-12.59-4.51-6.05-4.4-15.72-13.6-16.18-28.01Zm42.76-22.18c-.05-2.13-4.27-6.65-4.27-6.65l6.45,4.44.82,4.44c-.63-1.36-3.01-2.23-3.01-2.23Zm8.89,11c-.35-1.08.25-1.5.73-1.52.39-.01.84.36.84.36-1.35-.18-1.57,1.15-1.57,1.15Z"/>
  <g>
    <path class="cls-2" d="m29.96,75.29s10.54,3.78,21.75-1.38,16.81-18.12,14.99-30.49c0,0-.73,12.44-6.11,16.74,0,0,1.96-4.44.87-9.82,0,0-2.62,13.97-15.14,17.83-12.52,3.86-32.69-1.95-32.53-22.78-1,18.87,16.17,29.91,16.17,29.91Z"/>
    <path class="cls-2" d="m50.23,76.72s8.93-3.59,13.88-10.87c4.95-7.28,4.75-16.01,4.46-19.99,0,0,4.22,10.77-2.74,21.15-4.15,6.02-11.52,9.22-15.6,9.7Z"/>
  </g>
</svg>